<svg width="16" height="16" viewBox="0 0 16 16" fill="none" xmlns="http://www.w3.org/2000/svg">
<g clip-path="url(#clip0_435_2210)">
<rect width="16" height="16" fill="white"/>
<path d="M14.4805 0H1.51951C0.68031 0 0 0.723595 0 1.6162V14.3838C0 15.2764 0.68031 16 1.51951 16H14.4805C15.3197 16 16 15.2764 16 14.3838V1.6162C16 0.723595 15.3197 0 14.4805 0Z" fill="#011EF4"/>
<path fill-rule="evenodd" clip-rule="evenodd" d="M5.37843 3.58301V12.75H2.87743V3.58301H5.37843ZM11.0975 4.37701L13.8585 12H12.8025L12.1865 10.295H8.84246L8.22646 12H7.17046L9.94246 4.37701H11.0975ZM10.4273 3.62701H9.41714L6.09968 12.75H8.75294L9.36894 11.045H11.66L12.276 12.75H14.9278L11.6235 3.62701H10.6016H10.4273ZM11.9005 9.48101L10.5145 5.60901L9.12846 9.48101H11.9005ZM10.1935 8.73101H10.8354L10.5145 7.83443L10.1935 8.73101ZM4.62843 4.33301H3.62743V12H4.62843V4.33301Z" fill="white"/>
</g>
<defs>
<clipPath id="clip0_435_2210">
<rect width="16" height="16" fill="white"/>
</clipPath>
</defs>
</svg>
