<svg width="107" height="144" viewBox="0 0 107 144" fill="none" xmlns="http://www.w3.org/2000/svg">
<g clip-path="url(#clip0_416_516)">
<path d="M95.9149 0H11.0851C4.96297 0 0 4.96297 0 11.0851V132.104C0 138.226 4.96297 143.189 11.0851 143.189H95.9149C102.037 143.189 107 138.226 107 132.104V11.0851C107 4.96297 102.037 0 95.9149 0Z" fill="#011EF4"/>
<path d="M30.4957 74.9406H19.8673C19.5706 74.9406 19.2861 74.8228 19.0763 74.613C18.8666 74.4032 18.7487 74.1187 18.7487 73.8221V19.4609C18.7487 19.1642 18.8666 18.8797 19.0763 18.6699C19.2861 18.4601 19.5706 18.3423 19.8673 18.3423H30.4957C30.6426 18.3423 30.788 18.3712 30.9237 18.4274C31.0595 18.4837 31.1828 18.5661 31.2866 18.6699C31.3905 18.7738 31.4729 18.8971 31.5291 19.0328C31.5853 19.1685 31.6143 19.314 31.6143 19.4609V24.5196C31.6143 24.8163 31.4964 25.1008 31.2866 25.3106C31.0769 25.5203 30.7923 25.6382 30.4957 25.6382C30.199 25.6382 29.9145 25.5203 29.7048 25.3106C29.495 25.1008 29.3771 24.8163 29.3771 24.5196V20.5794H20.9859V72.7035H29.3771V32.0206H26.0137C25.717 32.0206 25.4325 31.9028 25.2227 31.693C25.0129 31.4832 24.8951 31.1987 24.8951 30.9021C24.8951 30.6054 25.0129 30.3209 25.2227 30.1111C25.4325 29.9013 25.717 29.7835 26.0137 29.7835H30.4957C30.792 29.7845 31.076 29.9027 31.2855 30.1122C31.4951 30.3218 31.6132 30.6057 31.6143 30.9021V73.8221C31.6143 73.9689 31.5853 74.1144 31.5291 74.2501C31.4729 74.3858 31.3905 74.5091 31.2866 74.613C31.1828 74.7169 31.0595 74.7993 30.9237 74.8555C30.788 74.9117 30.6426 74.9406 30.4957 74.9406Z" fill="white"/>
<path d="M87.0204 74.9407H75.9431C75.7165 74.9407 75.4952 74.8718 75.3086 74.7432C75.122 74.6147 74.9788 74.4325 74.898 74.2207L71.8365 66.2359H53.6451C53.3974 67.068 52.991 68.4305 52.5769 69.7968C52.1898 71.0624 51.8763 72.0765 51.644 72.8003C51.5124 73.2222 51.3963 73.5744 51.3151 73.8143C51.168 74.2362 50.928 74.9407 50.1036 74.9407H38.7785C38.6013 74.9398 38.4269 74.8971 38.2694 74.8159C38.1119 74.7347 37.9759 74.6174 37.8725 74.4736C37.769 74.3297 37.7011 74.1635 37.6743 73.9883C37.6474 73.8132 37.6624 73.6342 37.718 73.466L51.7524 31.5369C51.825 31.3125 51.9667 31.1169 52.1572 30.9778C52.3476 30.8388 52.5771 30.7635 52.8129 30.7628H62.9072C63.1436 30.7633 63.3737 30.8384 63.5648 30.9774C63.7559 31.1164 63.8983 31.3122 63.9716 31.5369L71.5539 54.5857C71.6097 54.7537 71.6247 54.9325 71.5979 55.1075C71.571 55.2825 71.5031 55.4486 71.3996 55.5921C71.296 55.7357 71.1599 55.8527 71.0024 55.9334C70.8448 56.0141 70.6704 56.0563 70.4934 56.0565H55.6616C55.4853 56.0559 55.3116 56.0135 55.1549 55.9328C54.9981 55.852 54.8627 55.7352 54.7598 55.592C54.655 55.4498 54.5859 55.2846 54.5583 55.1101C54.5307 54.9357 54.5454 54.7572 54.6011 54.5896L58.2936 44.2747C58.3388 44.1349 58.4112 44.0054 58.5064 43.8936C58.6017 43.7818 58.7181 43.6898 58.8489 43.6229C58.9798 43.5561 59.1225 43.5156 59.2689 43.504C59.4154 43.4923 59.5627 43.5095 59.7025 43.5548C59.8422 43.6 59.9717 43.6723 60.0836 43.7676C60.1954 43.8629 60.2873 43.9793 60.3542 44.1101C60.421 44.2409 60.4615 44.3836 60.4732 44.5301C60.4849 44.6765 60.4676 44.8239 60.4224 44.9636L57.2021 53.8193H68.9491L62.0828 33.0077H53.6025L40.319 72.7035H49.314C49.7708 71.3024 50.8081 67.8886 51.7254 64.8C51.7943 64.569 51.9359 64.3664 52.1289 64.2221C52.322 64.0778 52.5564 63.9995 52.7975 63.9988H72.6106C72.8372 63.9988 73.0584 64.0676 73.2451 64.1962C73.4317 64.3247 73.5748 64.5069 73.6556 64.7187L76.7055 72.7035H85.4529L67.7454 20.5795H57.7943L55.8242 26.3272C55.7879 26.4724 55.7227 26.6088 55.6327 26.7284C55.5426 26.848 55.4294 26.9483 55.2999 27.0234C55.1704 27.0984 55.0271 27.1467 54.8786 27.1654C54.73 27.184 54.5792 27.1727 54.4351 27.132C54.2911 27.0913 54.1566 27.0221 54.0398 26.9286C53.9229 26.835 53.8261 26.7188 53.7549 26.5871C53.6838 26.4554 53.6398 26.3107 53.6256 26.1617C53.6114 26.0127 53.6272 25.8623 53.6722 25.7195L55.8707 19.159C55.9377 18.9252 56.079 18.7196 56.273 18.573C56.4671 18.4264 56.7035 18.3468 56.9467 18.3462H68.5582C68.7938 18.3476 69.023 18.4231 69.2134 18.562C69.4037 18.7009 69.5455 18.8963 69.6187 19.1203L88.0926 73.4621C88.1489 73.6306 88.1645 73.81 88.138 73.9856C88.1115 74.1613 88.0437 74.3281 87.9402 74.4724C87.8367 74.6168 87.7003 74.7345 87.5425 74.8159C87.3846 74.8973 87.2097 74.94 87.0321 74.9407H87.0204Z" fill="white"/>
<path d="M25.8433 33.0851C27.0361 33.0851 28.0031 32.1182 28.0031 30.9254C28.0031 29.7326 27.0361 28.7656 25.8433 28.7656C24.6505 28.7656 23.6836 29.7326 23.6836 30.9254C23.6836 32.1182 24.6505 33.0851 25.8433 33.0851Z" fill="white"/>
<path d="M54.9031 27.5463C56.0959 27.5463 57.0628 26.5793 57.0628 25.3865C57.0628 24.1938 56.0959 23.2268 54.9031 23.2268C53.7103 23.2268 52.7433 24.1938 52.7433 25.3865C52.7433 26.5793 53.7103 27.5463 54.9031 27.5463Z" fill="white"/>
<path d="M59.9385 45.2616C61.1313 45.2616 62.0983 44.2947 62.0983 43.1019C62.0983 41.9091 61.1313 40.9421 59.9385 40.9421C58.7458 40.9421 57.7788 41.9091 57.7788 43.1019C57.7788 44.2947 58.7458 45.2616 59.9385 45.2616Z" fill="white"/>
<path d="M18.7487 81.2922C18.7387 81.2153 18.7469 81.1371 18.7724 81.0638C18.7979 80.9906 18.8401 80.9243 18.8957 80.8702C18.9513 80.8161 19.0187 80.7757 19.0926 80.7522C19.1665 80.7287 19.2449 80.7228 19.3215 80.7348H20.2505C20.6452 80.7348 20.8427 80.9206 20.8427 81.2922V109.686C20.8526 109.763 20.8445 109.841 20.819 109.915C20.7935 109.988 20.7513 110.054 20.6957 110.108C20.6401 110.162 20.5727 110.203 20.4987 110.226C20.4248 110.25 20.3464 110.256 20.2698 110.244H19.337C18.95 110.244 18.7487 110.058 18.7487 109.686V81.2922Z" fill="white"/>
<path d="M19.3022 110.244C19.2256 110.253 19.1478 110.244 19.0751 110.218C19.0023 110.193 18.9365 110.15 18.8829 110.095C18.8293 110.039 18.7893 109.972 18.766 109.899C18.7427 109.825 18.7367 109.747 18.7487 109.671V108.738C18.7487 108.351 18.9345 108.146 19.3022 108.146H28.3979C28.4748 108.136 28.5529 108.144 28.6262 108.169C28.6994 108.195 28.7657 108.237 28.8198 108.293C28.8739 108.348 28.9143 108.416 28.9378 108.49C28.9613 108.564 28.9672 108.642 28.9552 108.719V109.644C28.9552 110.038 28.7694 110.236 28.3979 110.236L19.3022 110.244Z" fill="white"/>
<path d="M50.2585 106.23L50.2043 104.871C49.7326 105.689 49.1519 106.439 48.4781 107.101C47.809 107.759 47.057 108.328 46.2409 108.792C44.5561 109.745 42.6532 110.245 40.7177 110.244C39.6712 110.245 38.6294 110.103 37.6213 109.822C36.6389 109.546 35.6968 109.142 34.819 108.622C33.9498 108.104 33.1477 107.482 32.4309 106.768C30.982 105.335 29.932 103.548 29.3848 101.585C28.8311 99.5581 28.8311 97.4196 29.3848 95.3924C29.6609 94.4101 30.0643 93.468 30.5847 92.5902C31.6201 90.851 33.0711 89.396 34.8074 88.3559C35.6852 87.8355 36.6273 87.4321 37.6097 87.156C38.6178 86.8751 39.6595 86.7332 40.7061 86.7341C42.6382 86.738 44.5367 87.2407 46.2177 88.1933C47.0419 88.6671 47.8038 89.2418 48.4858 89.9041C49.1679 90.5698 49.7599 91.3219 50.2468 92.1412V87.7172C50.2348 87.6406 50.2407 87.5622 50.2642 87.4883C50.2877 87.4144 50.3281 87.347 50.3822 87.2914C50.4363 87.2358 50.5026 87.1936 50.5759 87.1681C50.6491 87.1425 50.7273 87.1344 50.8042 87.1444H51.7332C52.1396 87.1444 52.3408 87.3379 52.3408 87.7172V109.257C52.348 109.34 52.3336 109.424 52.2991 109.501C52.2645 109.578 52.2109 109.644 52.1434 109.694C52.0062 109.786 51.844 109.833 51.679 109.829H50.9474C50.4791 109.829 50.2468 109.613 50.2468 109.183L50.2585 106.23ZM50.3669 98.4888C50.3763 97.2105 50.1124 95.945 49.5928 94.777C48.5753 92.4514 46.7235 90.5913 44.4024 89.5635C43.2428 89.0399 41.9861 88.7656 40.7138 88.7584H40.6596C39.404 88.7508 38.1615 89.0149 37.0175 89.5325C35.883 90.0448 34.8539 90.7641 33.983 91.6536C33.1069 92.5501 32.4024 93.5995 31.9045 94.75C31.3913 95.9172 31.1277 97.1789 31.1304 98.454C31.1266 99.7336 31.3793 101.001 31.8736 102.181C32.3517 103.342 33.0407 104.403 33.9056 105.313C34.7675 106.212 35.7919 106.941 36.9246 107.461C38.0854 107.985 39.3471 108.25 40.6209 108.235C41.9177 108.242 43.2016 107.978 44.3908 107.461C45.5466 106.959 46.5972 106.243 47.4872 105.351C48.3743 104.458 49.0882 103.408 49.5928 102.255C50.1106 101.067 50.3743 99.7844 50.3669 98.4888Z" fill="white"/>
<path d="M72.4751 89.13C72.7267 88.5688 72.986 87.9998 73.2492 87.427C73.3525 87.2943 73.5042 87.208 73.6711 87.187C73.863 87.1555 74.0572 87.14 74.2517 87.1406C74.5246 87.1263 74.798 87.1577 75.0606 87.2335C75.1391 87.2667 75.2044 87.325 75.2464 87.3992C75.2884 87.4734 75.3047 87.5593 75.2929 87.6437C75.2898 87.7038 75.2807 87.7635 75.2657 87.8218C75.2544 87.8708 75.2389 87.9187 75.2193 87.965C74.8503 88.8578 74.48 89.7467 74.1085 90.6318C73.7408 91.5142 73.3692 92.4045 73.0015 93.2985C73.884 95.4583 74.7871 97.6606 75.7109 99.9055C76.6346 102.15 77.5377 104.353 78.4202 106.512C78.7531 105.7 79.1259 104.796 79.5388 103.803C79.9516 102.81 80.3813 101.756 80.8277 100.641L82.1978 97.2503C82.6623 96.0917 83.1242 94.9487 83.5835 93.8211C84.0427 92.6935 84.484 91.6045 84.9072 90.5544C85.3329 89.5016 85.7239 88.5378 86.0683 87.6515C86.1284 87.5489 86.219 87.4677 86.3276 87.4193C86.4629 87.3571 86.6044 87.3091 86.7495 87.2761C86.9088 87.2407 87.0706 87.2174 87.2334 87.2064C87.3998 87.2064 87.5546 87.187 87.6978 87.187C87.7742 87.1799 87.8513 87.1889 87.924 87.2136C87.9967 87.2383 88.0634 87.278 88.1197 87.3302C88.2074 87.4218 88.256 87.544 88.2552 87.6708C88.2521 87.7309 88.243 87.7906 88.2281 87.8489C88.2202 87.8939 88.2045 87.9371 88.1816 87.9766L79.3182 109.512C79.2645 109.616 79.1808 109.701 79.0782 109.756C78.9434 109.826 78.7926 109.859 78.6408 109.853H78.0293C77.8771 109.858 77.7279 109.81 77.6074 109.717C77.5565 109.683 77.5145 109.637 77.4849 109.583C77.4552 109.529 77.4389 109.469 77.4371 109.408C76.5082 107.163 75.5832 104.933 74.662 102.719L71.8868 96.0311C71.4843 97.022 71.0676 98.0399 70.6366 99.0849C70.2057 100.13 69.7722 101.18 69.3362 102.236L68.0395 105.394C67.6099 106.447 67.1919 107.465 66.7855 108.455L66.3404 109.512C66.2722 109.629 66.1714 109.723 66.0504 109.784C65.9295 109.844 65.7935 109.868 65.6592 109.853H65.067C64.9153 109.855 64.7671 109.807 64.6451 109.717C64.5913 109.685 64.5462 109.639 64.5139 109.585C64.4815 109.531 64.4628 109.47 64.4593 109.408L55.5804 87.9689C55.5504 87.8699 55.5386 87.7663 55.5456 87.6631C55.5351 87.5662 55.5616 87.469 55.6197 87.3908C55.6778 87.3126 55.7633 87.2592 55.8591 87.2412C56.1147 87.1978 56.3738 87.177 56.6332 87.1793C56.8483 87.1771 57.0628 87.2018 57.2718 87.2528C57.3572 87.2717 57.4369 87.3107 57.5042 87.3666C57.5716 87.4225 57.6246 87.4936 57.6588 87.5741C58.0149 88.4565 58.402 89.4203 58.82 90.4653C59.2496 91.5104 59.6947 92.5941 60.1553 93.7243C60.6159 94.8545 61.0804 96.0002 61.5487 97.169C62.017 98.3379 62.4854 99.4913 62.946 100.591C63.4065 101.69 63.8439 102.758 64.2542 103.768C64.6645 104.778 65.0283 105.703 65.3921 106.516C66.1662 104.666 67.0693 102.428 68.1014 99.801C69.1336 97.1742 70.3322 94.19 71.6972 90.8485C71.9681 90.2654 72.2274 89.6925 72.4751 89.13Z" fill="white"/>
<path d="M30.4957 74.9406H19.8673C19.5706 74.9406 19.2861 74.8228 19.0763 74.613C18.8666 74.4032 18.7487 74.1187 18.7487 73.8221V19.4609C18.7487 19.1642 18.8666 18.8797 19.0763 18.6699C19.2861 18.4601 19.5706 18.3423 19.8673 18.3423H30.4957C30.6426 18.3423 30.788 18.3712 30.9237 18.4274C31.0595 18.4837 31.1828 18.5661 31.2866 18.6699C31.3905 18.7738 31.4729 18.8971 31.5291 19.0328C31.5853 19.1685 31.6143 19.314 31.6143 19.4609V24.5196C31.6143 24.8163 31.4964 25.1008 31.2866 25.3106C31.0769 25.5203 30.7923 25.6382 30.4957 25.6382C30.199 25.6382 29.9145 25.5203 29.7048 25.3106C29.495 25.1008 29.3771 24.8163 29.3771 24.5196V20.5794H20.9859V72.7035H29.3771V32.0206H26.0137C25.717 32.0206 25.4325 31.9028 25.2227 31.693C25.0129 31.4832 24.8951 31.1987 24.8951 30.9021C24.8951 30.6054 25.0129 30.3209 25.2227 30.1111C25.4325 29.9013 25.717 29.7835 26.0137 29.7835H30.4957C30.792 29.7845 31.076 29.9027 31.2855 30.1122C31.4951 30.3218 31.6132 30.6057 31.6143 30.9021V73.8221C31.6143 73.9689 31.5853 74.1144 31.5291 74.2501C31.4729 74.3858 31.3905 74.5091 31.2866 74.613C31.1828 74.7169 31.0595 74.7993 30.9237 74.8555C30.788 74.9117 30.6426 74.9406 30.4957 74.9406Z" fill="white"/>
<path d="M87.0204 74.9407H75.9431C75.7165 74.9407 75.4952 74.8718 75.3086 74.7432C75.122 74.6147 74.9788 74.4325 74.898 74.2207L71.8365 66.2359H53.6451C53.3974 67.068 52.991 68.4305 52.5769 69.7968C52.1898 71.0624 51.8763 72.0765 51.644 72.8003C51.5124 73.2222 51.3963 73.5744 51.3151 73.8143C51.168 74.2362 50.928 74.9407 50.1036 74.9407H38.7785C38.6013 74.9398 38.4269 74.8971 38.2694 74.8159C38.1119 74.7347 37.9759 74.6174 37.8725 74.4736C37.769 74.3297 37.7011 74.1635 37.6743 73.9883C37.6474 73.8132 37.6624 73.6342 37.718 73.466L51.7524 31.5369C51.825 31.3125 51.9667 31.1169 52.1572 30.9778C52.3476 30.8388 52.5771 30.7635 52.8129 30.7628H62.9072C63.1436 30.7633 63.3737 30.8384 63.5648 30.9774C63.7559 31.1164 63.8983 31.3122 63.9716 31.5369L71.5539 54.5857C71.6097 54.7537 71.6247 54.9325 71.5979 55.1075C71.571 55.2825 71.5031 55.4486 71.3996 55.5921C71.296 55.7357 71.1599 55.8527 71.0024 55.9334C70.8448 56.0141 70.6704 56.0563 70.4934 56.0565H55.6616C55.4853 56.0559 55.3116 56.0135 55.1549 55.9328C54.9981 55.852 54.8627 55.7352 54.7598 55.592C54.655 55.4498 54.5859 55.2846 54.5583 55.1101C54.5307 54.9357 54.5454 54.7572 54.6011 54.5896L58.2936 44.2747C58.3388 44.1349 58.4112 44.0054 58.5064 43.8936C58.6017 43.7818 58.7181 43.6898 58.8489 43.6229C58.9798 43.5561 59.1225 43.5156 59.2689 43.504C59.4154 43.4923 59.5627 43.5095 59.7025 43.5548C59.8422 43.6 59.9717 43.6723 60.0836 43.7676C60.1954 43.8629 60.2873 43.9793 60.3542 44.1101C60.421 44.2409 60.4615 44.3836 60.4732 44.5301C60.4849 44.6765 60.4676 44.8239 60.4224 44.9636L57.2021 53.8193H68.9491L62.0828 33.0077H53.6025L40.319 72.7035H49.314C49.7708 71.3024 50.8081 67.8886 51.7254 64.8C51.7943 64.569 51.9359 64.3664 52.1289 64.2221C52.322 64.0778 52.5564 63.9995 52.7975 63.9988H72.6106C72.8372 63.9988 73.0584 64.0676 73.2451 64.1962C73.4317 64.3247 73.5748 64.5069 73.6556 64.7187L76.7055 72.7035H85.4529L67.7454 20.5795H57.7943L55.8242 26.3272C55.7879 26.4724 55.7227 26.6088 55.6327 26.7284C55.5426 26.848 55.4294 26.9483 55.2999 27.0234C55.1704 27.0984 55.0271 27.1467 54.8786 27.1654C54.73 27.184 54.5792 27.1727 54.4351 27.132C54.2911 27.0913 54.1566 27.0221 54.0398 26.9286C53.9229 26.835 53.8261 26.7188 53.7549 26.5871C53.6838 26.4554 53.6398 26.3107 53.6256 26.1617C53.6114 26.0127 53.6272 25.8623 53.6722 25.7195L55.8707 19.159C55.9377 18.9252 56.079 18.7196 56.273 18.573C56.4671 18.4264 56.7035 18.3468 56.9467 18.3462H68.5582C68.7938 18.3476 69.023 18.4231 69.2134 18.562C69.4037 18.7009 69.5455 18.8963 69.6187 19.1203L88.0926 73.4621C88.1489 73.6306 88.1645 73.81 88.138 73.9856C88.1115 74.1613 88.0437 74.3281 87.9402 74.4724C87.8367 74.6168 87.7003 74.7345 87.5425 74.8159C87.3846 74.8973 87.2097 74.94 87.0321 74.9407H87.0204Z" fill="white"/>
<path d="M25.8433 33.0851C27.0361 33.0851 28.0031 32.1182 28.0031 30.9254C28.0031 29.7326 27.0361 28.7656 25.8433 28.7656C24.6505 28.7656 23.6836 29.7326 23.6836 30.9254C23.6836 32.1182 24.6505 33.0851 25.8433 33.0851Z" fill="white"/>
<path d="M54.9031 27.5463C56.0959 27.5463 57.0628 26.5793 57.0628 25.3865C57.0628 24.1938 56.0959 23.2268 54.9031 23.2268C53.7103 23.2268 52.7433 24.1938 52.7433 25.3865C52.7433 26.5793 53.7103 27.5463 54.9031 27.5463Z" fill="white"/>
<path d="M59.9385 45.2616C61.1313 45.2616 62.0983 44.2947 62.0983 43.1019C62.0983 41.9091 61.1313 40.9421 59.9385 40.9421C58.7458 40.9421 57.7788 41.9091 57.7788 43.1019C57.7788 44.2947 58.7458 45.2616 59.9385 45.2616Z" fill="white"/>
<path d="M85.9832 109.795C87.176 109.795 88.1429 108.828 88.1429 107.635C88.1429 106.442 87.176 105.475 85.9832 105.475C84.7904 105.475 83.8234 106.442 83.8234 107.635C83.8234 108.828 84.7904 109.795 85.9832 109.795Z" fill="#FBBB02"/>
<path d="M21.3381 118.565C21.6086 118.912 21.7459 119.345 21.7252 119.784V123.159C21.7459 123.599 21.6086 124.031 21.3381 124.379C21.199 124.533 21.0261 124.654 20.8328 124.731C20.6394 124.809 20.4309 124.84 20.2234 124.824H18.7487V118.116H20.2234C20.4312 118.1 20.6398 118.133 20.8331 118.211C21.0264 118.289 21.1992 118.41 21.3381 118.565ZM21.0091 124.092C21.1964 123.826 21.2878 123.504 21.2684 123.179V119.765C21.2866 119.441 21.1952 119.121 21.0091 118.855C20.9153 118.743 20.7964 118.654 20.662 118.595C20.5275 118.537 20.3814 118.511 20.235 118.519H19.1977V124.421H20.2234C20.371 124.432 20.519 124.407 20.6554 124.35C20.7919 124.293 20.9131 124.205 21.0091 124.092Z" fill="white"/>
<path d="M25.0034 124.824H24.566V118.116H25.0034V124.824Z" fill="white"/>
<path d="M30.3718 118.546C30.6225 118.905 30.7464 119.338 30.7241 119.776V120.276H30.3022V119.745C30.3189 119.422 30.2337 119.101 30.0584 118.828C29.9614 118.718 29.8422 118.631 29.7088 118.571C29.5753 118.51 29.4306 118.479 29.2843 118.479C29.1379 118.479 28.9931 118.51 28.8597 118.571C28.7262 118.631 28.6071 118.718 28.5102 118.828C28.3348 119.101 28.2495 119.422 28.2663 119.745V123.229C28.2504 123.551 28.3356 123.871 28.5102 124.142C28.6078 124.251 28.7271 124.338 28.8605 124.397C28.9939 124.456 29.1383 124.487 29.2843 124.487C29.4303 124.487 29.5746 124.456 29.708 124.397C29.8413 124.338 29.9607 124.251 30.0584 124.142C30.2329 123.871 30.3181 123.551 30.3022 123.229V121.781H29.412V121.394H30.7241V123.19C30.7464 123.628 30.6225 124.061 30.3718 124.421C30.23 124.568 30.0601 124.684 29.8723 124.764C29.6844 124.844 29.4825 124.885 29.2784 124.885C29.0744 124.885 28.8724 124.844 28.6846 124.764C28.4968 124.684 28.3268 124.568 28.185 124.421C27.9344 124.061 27.8105 123.628 27.8328 123.19V119.761C27.8105 119.323 27.9344 118.89 28.185 118.53C28.3268 118.383 28.4968 118.267 28.6846 118.187C28.8724 118.107 29.0744 118.066 29.2784 118.066C29.4825 118.066 29.6844 118.107 29.8723 118.187C30.0601 118.267 30.23 118.383 30.3718 118.53V118.546Z" fill="white"/>
<path d="M34.0101 124.824H33.5728V118.116H34.0101V124.824Z" fill="white"/>
<path d="M38.047 118.519H36.6769V118.132H39.8468V118.519H38.4882V124.824H38.047V118.519Z" fill="white"/>
<path d="M42.471 124.824H42.084L43.5509 118.108H44.1934L45.6874 124.824H45.2462L44.9133 123.341H42.8078L42.471 124.824ZM44.8282 122.958L43.8412 118.615L42.8736 122.958H44.8282Z" fill="white"/>
<path d="M48.4509 118.116H48.8922V124.421H51.0016V124.808H48.4509V118.116Z" fill="white"/>
<path d="M54.0748 124.824H53.6877L55.1547 118.108H55.7972L57.2912 124.824H56.85L56.5171 123.341H54.4193L54.0748 124.824ZM56.4319 122.958L55.445 118.615L54.4773 122.958H56.4319Z" fill="white"/>
<path d="M61.0533 124.824L59.9695 118.116H60.3992L61.4055 124.231L62.3847 118.147H62.8531L63.7936 124.212L64.7612 118.116H65.1483L64.0955 124.824H63.5188L62.6054 119.32L61.6648 124.808L61.0533 124.824Z" fill="white"/>
<path d="M67.8189 118.116H68.2756L69.5606 121.646L70.8456 118.116H71.2753L69.7619 122.25V124.824H69.3207V122.25L67.8189 118.116Z" fill="white"/>
<path d="M76.2953 121.642H74.4685V124.436H76.6708V124.824H74.0272V118.116H76.6708V118.503H74.4685V121.212H76.2953V121.642Z" fill="white"/>
<path d="M82.3333 119.633V120.218C82.3517 120.545 82.2693 120.871 82.0972 121.15C81.921 121.391 81.6591 121.554 81.3657 121.607C82.0133 121.746 82.3359 122.203 82.3333 122.977V124.018C82.312 124.297 82.3683 124.575 82.4959 124.824H82.0352C81.9761 124.723 81.938 124.611 81.923 124.495C81.9007 124.337 81.8903 124.178 81.892 124.018V122.966C81.9101 122.804 81.8909 122.639 81.8359 122.486C81.7809 122.332 81.6915 122.193 81.5747 122.079C81.3001 121.891 80.9697 121.803 80.638 121.828H79.9375V124.824H79.4962V118.116H80.8973C81.8546 118.116 82.3333 118.622 82.3333 119.633ZM81.5862 121.181C81.701 121.067 81.7881 120.928 81.8411 120.775C81.8941 120.623 81.9115 120.46 81.892 120.299V119.668C81.9152 119.362 81.8303 119.058 81.6521 118.809C81.5542 118.704 81.4335 118.623 81.2993 118.572C81.1651 118.52 81.0209 118.501 80.878 118.515H79.9297V121.421H80.638C80.9713 121.447 81.3039 121.364 81.5862 121.185V121.181Z" fill="white"/>
<path d="M87.7791 118.515C88.031 118.871 88.1552 119.302 88.1313 119.738V119.881H87.7056V119.707C87.7218 119.386 87.638 119.068 87.4656 118.797C87.3695 118.692 87.2526 118.608 87.1223 118.551C86.992 118.494 86.8513 118.464 86.7089 118.464C86.5666 118.464 86.4258 118.494 86.2955 118.551C86.1652 118.608 86.0483 118.692 85.9522 118.797C85.7814 119.066 85.6976 119.381 85.7122 119.699C85.7073 119.924 85.7607 120.147 85.8671 120.345C85.9671 120.529 86.098 120.694 86.2541 120.833C86.4516 121.009 86.6583 121.174 86.8734 121.328C87.1061 121.491 87.3297 121.667 87.543 121.855C87.7212 122.015 87.8682 122.206 87.9765 122.42C88.092 122.661 88.1503 122.926 88.1468 123.194C88.1707 123.63 88.0465 124.061 87.7946 124.417C87.5043 124.707 87.1111 124.869 86.7012 124.869C86.2912 124.869 85.898 124.707 85.6077 124.417C85.3558 124.061 85.2317 123.63 85.2556 123.194V122.85H85.6774V123.237C85.6591 123.557 85.7446 123.875 85.9213 124.142C86.0202 124.249 86.1399 124.334 86.2731 124.392C86.4063 124.45 86.5501 124.48 86.6954 124.48C86.8407 124.48 86.9844 124.45 87.1176 124.392C87.2508 124.334 87.3706 124.249 87.4695 124.142C87.6461 123.875 87.7316 123.557 87.7133 123.237C87.7181 123.014 87.6661 122.795 87.5624 122.598C87.461 122.416 87.3302 122.253 87.1753 122.114C86.9751 121.944 86.7644 121.786 86.5444 121.642C86.3109 121.476 86.0861 121.297 85.8709 121.108C85.6936 120.944 85.5468 120.75 85.4375 120.535C85.3139 120.289 85.2527 120.017 85.2594 119.742C85.235 119.308 85.3608 118.878 85.6155 118.526C85.7473 118.374 85.9127 118.254 86.0988 118.176C86.2848 118.098 86.4864 118.064 86.6876 118.077C86.8913 118.057 87.0969 118.086 87.2869 118.162C87.4769 118.239 87.6457 118.359 87.7791 118.515Z" fill="white"/>
</g>
<defs>
<clipPath id="clip0_416_516">
<rect width="107" height="143.189" fill="white"/>
</clipPath>
</defs>
</svg>
