<svg width="82" height="101" viewBox="0 0 82 101" fill="none" xmlns="http://www.w3.org/2000/svg">
<g clip-path="url(#clip0_209_946)">
<path d="M76.9534 0.5H5.36347C2.57631 0.5 0.316864 2.75944 0.316864 5.54661V95.4534C0.316864 98.2406 2.57631 100.5 5.36347 100.5H76.9534C79.7406 100.5 82 98.2406 82 95.4534V5.54661C82 2.75944 79.7406 0.5 76.9534 0.5Z" fill="white"/>
<path d="M14.6708 62.1289C14.6708 61.8328 14.8241 61.6848 15.1289 61.6848H15.8708C16.1862 61.6848 16.343 61.8328 16.343 62.1289V84.791C16.343 85.0853 16.1897 85.2333 15.8849 85.2333H15.143C14.8294 85.2333 14.6708 85.0853 14.6708 84.791V62.1289Z" fill="#011EF4"/>
<path d="M37.3294 82.3752L37.2871 81.2898C36.9094 81.9424 36.4453 82.5411 35.9074 83.0695C35.3735 83.5949 34.7735 84.0486 34.1224 84.4192C32.7793 85.1806 31.2612 85.5796 29.7172 85.5769C28.8792 85.5794 28.0449 85.4661 27.238 85.2404C26.4538 85.0211 25.7019 84.6994 25.0019 84.2835C24.3083 83.8706 23.668 83.3741 23.0953 82.8052C21.9404 81.66 21.103 80.2342 20.6654 78.6678C20.2189 77.0457 20.2189 75.3331 20.6654 73.711C20.8834 72.9242 21.2051 72.1699 21.6222 71.4679C22.4499 70.0787 23.6109 68.9177 25.0001 68.09C25.7014 67.6767 26.4537 67.3568 27.238 67.1385C28.0452 66.914 28.8794 66.8014 29.7172 66.8037C32.0372 66.8011 34.2656 67.7091 35.9233 69.3323C36.4695 69.8634 36.9435 70.4642 37.3329 71.119V67.6037C37.3329 67.2988 37.4809 67.1473 37.7752 67.1473H38.5153C38.8395 67.1473 39.0016 67.2988 39.0016 67.6037V84.7769C39.0082 84.8442 38.9972 84.9121 38.9697 84.9738C38.9422 85.0356 38.8992 85.0892 38.8448 85.1294C38.7349 85.2026 38.6051 85.2401 38.473 85.2368H37.8862C37.5138 85.2368 37.3282 85.0653 37.3294 84.7223V82.3752ZM37.4158 76.1974C37.42 75.1747 37.2055 74.1629 36.7867 73.23C36.3798 72.3117 35.8083 71.4756 35.1004 70.7631C34.3936 70.0518 33.5606 69.4782 32.644 69.0715C31.7186 68.6546 30.7163 68.4356 29.7014 68.4283H29.6573C28.654 68.425 27.662 68.6397 26.7499 69.0574C25.8448 69.466 25.0237 70.0396 24.3288 70.749C23.6301 71.4628 23.0686 72.299 22.6724 73.2159C22.2623 74.1468 22.0528 75.1537 22.0574 76.1709C22.057 77.1924 22.2607 78.2037 22.6565 79.1453C23.0387 80.0707 23.5889 80.9173 24.2794 81.6422C24.9651 82.3615 25.7821 82.9429 26.6864 83.3549C27.6111 83.7808 28.6182 83.9979 29.6362 83.991C30.6711 83.9953 31.6956 83.7835 32.644 83.369C33.5666 82.9703 34.405 82.3998 35.1145 81.688C35.8234 80.9744 36.3929 80.1348 36.7937 79.2123C37.2101 78.262 37.422 77.2348 37.4158 76.1974Z" fill="#011EF4"/>
<path d="M55.0596 68.7332C55.2587 68.2839 55.4631 67.8328 55.6728 67.3746C55.7128 67.3214 55.7634 67.2769 55.8212 67.2439C55.8791 67.2109 55.9431 67.19 56.0093 67.1826C56.1626 67.158 56.3176 67.1462 56.4727 67.1473C56.6895 67.1359 56.9067 67.1597 57.1159 67.2178C57.1789 67.2446 57.2313 67.2914 57.265 67.351C57.2988 67.4105 57.312 67.4795 57.3027 67.5473C57.3012 67.5957 57.2935 67.6436 57.2798 67.69C57.2718 67.7293 57.26 67.7677 57.2445 67.8046V67.7887C56.9509 68.5041 56.6572 69.2137 56.3635 69.9173C56.0692 70.6221 55.7732 71.327 55.4825 72.0477C56.1873 73.771 56.9039 75.5278 57.6322 77.3181C58.3605 79.1083 59.0818 80.8657 59.796 82.5902C60.0639 81.9441 60.3617 81.2205 60.6894 80.4193C61.0172 79.6182 61.3602 78.7776 61.7185 77.8978C62.0709 77.0167 62.4351 76.114 62.811 75.1895C63.1869 74.265 63.5557 73.3534 63.9175 72.4547C64.2841 71.5537 64.6365 70.6844 64.9748 69.8468C65.3131 69.0092 65.6256 68.2374 65.9122 67.5314C65.9592 67.4512 66.0318 67.3892 66.1184 67.3552C66.226 67.3047 66.3389 67.2663 66.455 67.2407C66.5819 67.2117 66.7109 67.1928 66.8408 67.1843C66.973 67.1843 67.0963 67.1702 67.2109 67.1702C67.2719 67.1647 67.3334 67.172 67.3913 67.1917C67.4493 67.2114 67.5025 67.2431 67.5474 67.2848C67.6174 67.3576 67.656 67.4551 67.6549 67.5561C67.6535 67.6045 67.6458 67.6525 67.632 67.6988C67.6271 67.7338 67.6151 67.7673 67.5968 67.7975L60.5255 84.9849C60.4813 85.0671 60.4139 85.1345 60.3317 85.1787C60.223 85.2347 60.1015 85.2614 59.9793 85.2562H59.5018C59.381 85.2607 59.2626 85.2227 59.167 85.1488C59.1259 85.121 59.0922 85.0838 59.0685 85.0402C59.0449 84.9967 59.0321 84.9481 59.0313 84.8985L56.8164 79.563L54.6014 74.2274L53.6023 76.6626L52.5662 79.1771C52.2138 80.0205 51.8684 80.861 51.5301 81.6986C51.1918 82.5362 50.8588 83.3508 50.531 84.1426L50.1786 84.9849C50.1242 85.0779 50.044 85.1531 49.9476 85.2013C49.8512 85.2495 49.7429 85.2686 49.6359 85.2562H49.1583C49.038 85.2576 48.9205 85.2199 48.8235 85.1488C48.7796 85.123 48.7428 85.0866 48.7166 85.0428C48.6904 84.9991 48.6757 84.9495 48.6738 84.8985L41.5726 67.8063C41.5477 67.7284 41.5381 67.6465 41.5444 67.5649C41.5333 67.4872 41.5533 67.4082 41.6002 67.3451C41.6471 67.2821 41.7169 67.2401 41.7946 67.2284C42.004 67.1916 42.2164 67.175 42.4289 67.179C42.5997 67.1781 42.77 67.197 42.9364 67.2354C43.007 67.2489 43.0733 67.2793 43.1295 67.3242C43.1857 67.369 43.2301 67.4268 43.2589 67.4927C43.5443 68.1975 43.8586 68.9664 44.2016 69.7993C44.5446 70.6321 44.897 71.4991 45.2588 72.4001C45.6254 73.2999 45.9966 74.2168 46.3725 75.1507C46.7484 76.0846 47.1249 76.988 47.502 77.8608C47.8685 78.7465 48.2162 79.5923 48.5451 80.3982C48.8741 81.204 49.1724 81.9347 49.4403 82.5902C50.05 81.1136 50.7742 79.328 51.6129 77.2335C52.4517 75.1389 53.4085 72.7578 54.4834 70.09H54.4693C54.6631 69.6318 54.8587 69.1772 55.0596 68.7332Z" fill="#011EF4"/>
<path d="M65.9968 85.2333C66.9067 85.2333 67.6443 84.4956 67.6443 83.5857C67.6443 82.6758 66.9067 81.9382 65.9968 81.9382C65.0869 81.9382 64.3492 82.6758 64.3492 83.5857C64.3492 84.4956 65.0869 85.2333 65.9968 85.2333Z" fill="#011EF4"/>
<path d="M23.6398 58.6276H15.5254C15.2987 58.6276 15.0814 58.5376 14.9211 58.3773C14.7608 58.217 14.6708 57.9997 14.6708 57.773V16.2759C14.6708 16.0493 14.7608 15.8319 14.9211 15.6716C15.0814 15.5114 15.2987 15.4213 15.5254 15.4213H23.6398C23.8661 15.4218 24.0831 15.512 24.2429 15.6723C24.4028 15.8325 24.4926 16.0496 24.4926 16.2759V20.1384C24.4979 20.2538 24.4797 20.369 24.4391 20.4772C24.3986 20.5853 24.3366 20.6841 24.2568 20.7676C24.177 20.8511 24.0811 20.9176 23.9749 20.963C23.8687 21.0084 23.7544 21.0318 23.6389 21.0318C23.5234 21.0318 23.4091 21.0084 23.3029 20.963C23.1967 20.9176 23.1008 20.8511 23.021 20.7676C22.9412 20.6841 22.8792 20.5853 22.8387 20.4772C22.7981 20.369 22.7799 20.2538 22.7852 20.1384V17.1288H16.3782V56.9202H22.7852V25.8634H20.2196C20.1042 25.8687 19.989 25.8505 19.8808 25.8099C19.7727 25.7694 19.6739 25.7074 19.5904 25.6276C19.5069 25.5478 19.4404 25.4519 19.395 25.3457C19.3496 25.2395 19.3262 25.1252 19.3262 25.0097C19.3262 24.8942 19.3496 24.7799 19.395 24.6737C19.4404 24.5675 19.5069 24.4716 19.5904 24.3918C19.6739 24.312 19.7727 24.25 19.8808 24.2095C19.989 24.1689 20.1042 24.1507 20.2196 24.156H23.6398C23.866 24.156 24.0829 24.2458 24.2428 24.4058C24.4028 24.5657 24.4926 24.7826 24.4926 25.0088V57.773C24.4926 57.9994 24.4028 58.2165 24.2429 58.3767C24.0831 58.5369 23.8661 58.6271 23.6398 58.6276Z" fill="#011EF4"/>
<path d="M66.7914 58.6276H58.3334C58.1618 58.6258 57.9948 58.5722 57.8543 58.4737C57.7137 58.3753 57.6062 58.2367 57.5458 58.0761L55.2181 51.981H41.3011C41.1126 52.6136 40.8007 53.6568 40.4835 54.6982C40.1893 55.6656 39.9549 56.4373 39.7787 56.9889C39.6765 57.3096 39.5902 57.5756 39.525 57.7624C39.4139 58.0831 39.2272 58.6223 38.6034 58.6223H29.9516C29.8164 58.622 29.6832 58.5896 29.563 58.5278C29.4428 58.466 29.3389 58.3765 29.26 58.2668C29.1811 58.1571 29.1293 58.0302 29.1089 57.8966C29.0885 57.7629 29.1001 57.6264 29.1428 57.4981L39.8545 25.4916C39.9114 25.3217 40.0202 25.174 40.1657 25.0693C40.3112 24.9646 40.4858 24.9083 40.665 24.9084H48.3724C48.5519 24.9089 48.7268 24.9658 48.8723 25.0711C49.0177 25.1764 49.1264 25.3247 49.1829 25.4952L54.9731 43.0984C55.0153 43.2266 55.0263 43.363 55.0054 43.4964C54.9846 43.6298 54.9323 43.7563 54.853 43.8655C54.7737 43.9747 54.6696 44.0636 54.5493 44.1247C54.4289 44.1859 54.2958 44.2176 54.1608 44.2173H42.8412C42.7064 44.2175 42.5735 44.1858 42.4533 44.1248C42.3332 44.0637 42.2292 43.975 42.15 43.866C42.0707 43.757 42.0184 43.6308 41.9973 43.4976C41.9763 43.3645 41.9871 43.2283 42.0289 43.1001L44.8482 35.2236C44.8829 35.1171 44.9383 35.0184 45.0111 34.9332C45.084 34.8481 45.1729 34.7781 45.2728 34.7273C45.3727 34.6765 45.4816 34.6458 45.5933 34.6371C45.705 34.6284 45.8174 34.6418 45.924 34.6765C46.0305 34.7112 46.1292 34.7666 46.2144 34.8394C46.2995 34.9123 46.3695 35.0012 46.4203 35.1011C46.4711 35.201 46.5018 35.3099 46.5105 35.4216C46.5192 35.5333 46.5058 35.6457 46.4711 35.7522L44.0147 42.5116H52.982L47.7539 26.6211H41.2782L31.1374 56.929H38.0096C38.362 55.8594 39.1514 53.2515 39.8527 50.8956C39.9048 50.7191 40.0125 50.5642 40.1599 50.454C40.3073 50.3438 40.4863 50.2842 40.6703 50.2842H55.8013C55.9744 50.2842 56.1434 50.3368 56.2859 50.4349C56.4284 50.5331 56.5378 50.6722 56.5995 50.8339L58.9273 56.929H65.6056L52.0833 17.1288H44.4852L42.9804 21.5164C42.95 21.6242 42.8986 21.725 42.8292 21.813C42.7598 21.9009 42.6738 21.9744 42.576 22.0291C42.4783 22.0839 42.3707 22.1188 42.2594 22.132C42.1482 22.1451 42.0354 22.1362 41.9276 22.1058C41.8197 22.0754 41.7189 22.024 41.631 21.9546C41.543 21.8852 41.4695 21.7992 41.4148 21.7014C41.3601 21.6037 41.3251 21.4961 41.312 21.3848C41.2988 21.2735 41.3077 21.1608 41.3381 21.0529L43.0174 16.0433C43.068 15.8645 43.1755 15.707 43.3237 15.5947C43.4719 15.4825 43.6526 15.4216 43.8385 15.4213H52.6948C52.8731 15.4219 53.0468 15.4781 53.1918 15.582C53.3367 15.6859 53.4457 15.8324 53.5036 16.0011L67.6002 57.4981C67.6439 57.6267 67.6563 57.7638 67.6364 57.8982C67.6165 58.0325 67.5649 58.1601 67.4859 58.2706C67.4068 58.381 67.3026 58.4709 67.1818 58.533C67.0611 58.5951 66.9272 58.6276 66.7914 58.6276Z" fill="#011EF4"/>
<path d="M20.0892 26.6739C20.9991 26.6739 21.7367 25.9363 21.7367 25.0264C21.7367 24.1165 20.9991 23.3788 20.0892 23.3788C19.1793 23.3788 18.4416 24.1165 18.4416 25.0264C18.4416 25.9363 19.1793 26.6739 20.0892 26.6739Z" fill="#011EF4"/>
<path d="M42.2703 22.4449C43.1803 22.4449 43.9179 21.7073 43.9179 20.7974C43.9179 19.8875 43.1803 19.1498 42.2703 19.1498C41.3604 19.1498 40.6228 19.8875 40.6228 20.7974C40.6228 21.7073 41.3604 22.4449 42.2703 22.4449Z" fill="#011EF4"/>
<path d="M46.1152 35.9689C47.0251 35.9689 47.7627 35.2313 47.7627 34.3214C47.7627 33.4115 47.0251 32.6738 46.1152 32.6738C45.2053 32.6738 44.4677 33.4115 44.4677 34.3214C44.4677 35.2313 45.2053 35.9689 46.1152 35.9689Z" fill="#011EF4"/>
</g>
<defs>
<clipPath id="clip0_209_946">
<rect width="81.6831" height="100" fill="white" transform="translate(0.316864 0.5)"/>
</clipPath>
</defs>
</svg>
