<svg width="32" height="32" viewBox="0 0 32 32" fill="none" xmlns="http://www.w3.org/2000/svg">
<path d="M22 11.5V7C22 3.6865 19.3135 1 16 1C12.6865 1 10 3.6865 10 7V11.5" stroke="#011EF4" stroke-width="2" stroke-linecap="round" stroke-linejoin="round"/>
<path d="M25.5 31H6.5C5.1195 31 4 29.8805 4 28.5V16.5C4 15.1195 5.1195 14 6.5 14H25.5C26.8805 14 28 15.1195 28 16.5V28.5C28 29.8805 26.8805 31 25.5 31Z" stroke="#011EF4" stroke-width="2" stroke-linecap="round" stroke-linejoin="round"/>
<path d="M16 24V27" stroke="#011EF4" stroke-width="2" stroke-linecap="round" stroke-linejoin="round"/>
<path d="M16 24C17.6569 24 19 22.6569 19 21C19 19.3431 17.6569 18 16 18C14.3431 18 13 19.3431 13 21C13 22.6569 14.3431 24 16 24Z" stroke="#011EF4" stroke-width="2" stroke-linecap="round" stroke-linejoin="round"/>
</svg>
