<svg width="25" height="25" viewBox="0 0 25 25" fill="none" xmlns="http://www.w3.org/2000/svg">
<g clip-path="url(#clip0_209_1056)">
<path d="M23.45 0.5H1.55C0.95 0.5 0.5 0.95 0.5 1.55V23.6C0.5 24.05 0.95 24.5 1.55 24.5H23.6C24.2 24.5 24.65 24.05 24.65 23.45V1.55C24.5 0.95 24.05 0.5 23.45 0.5ZM7.55 20.9H4.1V9.5H7.7V20.9H7.55ZM5.9 8C4.7 8 3.8 6.95 3.8 5.9C3.8 4.7 4.7 3.8 5.9 3.8C7.1 3.8 8 4.7 8 5.9C7.85 6.95 6.95 8 5.9 8ZM20.9 20.9H17.3V15.35C17.3 14 17.3 12.35 15.5 12.35C13.7 12.35 13.4 13.85 13.4 15.35V21.05H9.8V9.5H13.25V11C13.7 10.1 14.9 9.2 16.55 9.2C20.15 9.2 20.75 11.6 20.75 14.6V20.9H20.9Z" fill="white"/>
</g>
<defs>
<clipPath id="clip0_209_1056">
<rect width="24" height="24" fill="white" transform="translate(0.5 0.5)"/>
</clipPath>
</defs>
</svg>
