<svg width="24" height="25" viewBox="0 0 24 25" fill="none" xmlns="http://www.w3.org/2000/svg">
<g clip-path="url(#clip0_303_395)">
<path d="M12 2.6615C15.204 2.6615 15.5835 2.675 16.8495 2.732C17.6103 2.74114 18.3638 2.88119 19.077 3.146C19.5987 3.33872 20.0703 3.64631 20.457 4.046C20.8567 4.43269 21.1643 4.90433 21.357 5.426C21.6218 6.13924 21.7619 6.89274 21.771 7.6535C21.828 8.9195 21.8415 9.3035 21.8415 12.503C21.8415 15.7025 21.828 16.0865 21.771 17.3525C21.7619 18.1133 21.6218 18.8668 21.357 19.58C21.1578 20.0977 20.8522 20.5678 20.46 20.96C20.0678 21.3522 19.5977 21.6578 19.08 21.857C18.3668 22.1218 17.6133 22.2619 16.8525 22.271C15.5865 22.328 15.2025 22.3415 12.003 22.3415C8.8035 22.3415 8.4195 22.328 7.1535 22.271C6.39274 22.2619 5.63924 22.1218 4.926 21.857C4.40433 21.6643 3.93269 21.3567 3.546 20.957C3.14631 20.5703 2.83872 20.0987 2.646 19.577C2.38119 18.8638 2.24114 18.1103 2.232 17.3495C2.175 16.0835 2.1615 15.6995 2.1615 12.5C2.1615 9.3005 2.175 8.9165 2.232 7.6505C2.24114 6.88974 2.38119 6.13624 2.646 5.423C2.83872 4.90133 3.14631 4.42969 3.546 4.043C3.93269 3.64331 4.40433 3.33572 4.926 3.143C5.63924 2.87819 6.39274 2.73814 7.1535 2.729C8.4195 2.672 8.8035 2.6585 12.003 2.6585M12 0.5C8.7405 0.5 8.3325 0.5135 7.05 0.572C6.05544 0.592225 5.0715 0.780898 4.14 1.13C3.33894 1.43084 2.61346 1.9034 2.0145 2.5145C1.4034 3.11346 0.930838 3.83894 0.63 4.64C0.280898 5.5715 0.0922252 6.55544 0.072 7.55C0.0135 8.8325 0 9.2405 0 12.5C0 15.7595 0.0135 16.1675 0.072 17.45C0.0922252 18.4446 0.280898 19.4285 0.63 20.36C0.930838 21.1611 1.4034 21.8865 2.0145 22.4855C2.61346 23.0966 3.33894 23.5692 4.14 23.87C5.07245 24.2194 6.05743 24.4081 7.053 24.428C8.3325 24.4865 8.7405 24.5 12 24.5C15.2595 24.5 15.6675 24.4865 16.95 24.428C17.9456 24.4081 18.9306 24.2194 19.863 23.87C20.6601 23.5614 21.384 23.0899 21.9885 22.4855C22.5929 21.881 23.0644 21.1571 23.373 20.36C23.7224 19.4276 23.9111 18.4426 23.931 17.447C23.9895 16.1675 24.003 15.7595 24.003 12.497C24.003 9.2345 23.9895 8.8295 23.931 7.547C23.9095 6.55328 23.7198 5.57037 23.37 4.64C23.0692 3.83894 22.5966 3.11346 21.9855 2.5145C21.3865 1.9034 20.6611 1.43084 19.86 1.13C18.9285 0.780898 17.9446 0.592225 16.95 0.572C15.6675 0.5135 15.2595 0.5 12 0.5Z" fill="white"/>
<path d="M12 6.338C10.7813 6.338 9.58993 6.69939 8.57659 7.37648C7.56326 8.05357 6.77346 9.01594 6.30707 10.1419C5.84068 11.2679 5.71865 12.5068 5.95642 13.7021C6.19418 14.8975 6.78105 15.9954 7.64282 16.8572C8.50459 17.719 9.60256 18.3058 10.7979 18.5436C11.9932 18.7814 13.2322 18.6593 14.3581 18.1929C15.4841 17.7266 16.4464 16.9368 17.1235 15.9234C17.8006 14.9101 18.162 13.7187 18.162 12.5C18.162 11.6908 18.0026 10.8895 17.693 10.1419C17.3833 9.39429 16.9294 8.715 16.3572 8.14281C15.785 7.57061 15.1057 7.11672 14.3581 6.80705C13.6105 6.49738 12.8092 6.338 12 6.338ZM12 16.5005C11.2088 16.5005 10.4353 16.2659 9.77746 15.8263C9.11958 15.3867 8.60682 14.7619 8.30404 14.0309C8.00125 13.2999 7.92202 12.4956 8.07638 11.7195C8.23074 10.9435 8.61175 10.2307 9.17123 9.67122C9.73071 9.11174 10.4435 8.73073 11.2196 8.57637C11.9956 8.42201 12.7999 8.50123 13.5309 8.80402C14.2619 9.10681 14.8867 9.61956 15.3263 10.2774C15.7659 10.9353 16.0005 11.7088 16.0005 12.5C16.0005 13.561 15.579 14.5785 14.8288 15.3288C14.0786 16.079 13.061 16.5005 12 16.5005Z" fill="white"/>
<path d="M18.405 7.535C19.2003 7.535 19.845 6.89029 19.845 6.095C19.845 5.29971 19.2003 4.655 18.405 4.655C17.6097 4.655 16.965 5.29971 16.965 6.095C16.965 6.89029 17.6097 7.535 18.405 7.535Z" fill="white"/>
</g>
<defs>
<clipPath id="clip0_303_395">
<rect width="24" height="24" fill="white" transform="translate(0 0.5)"/>
</clipPath>
</defs>
</svg>
