<svg width="25" height="25" viewBox="0 0 25 25" fill="none" xmlns="http://www.w3.org/2000/svg">
<path d="M12.5 24C18.8513 24 24 18.8513 24 12.5C24 6.14873 18.8513 1 12.5 1C6.14873 1 1 6.14873 1 12.5C1 18.8513 6.14873 24 12.5 24Z" fill="white"/>
<path d="M16.9765 15.824L17.4865 12.5H14.297V10.343C14.297 9.4335 14.7425 8.547 16.171 8.547H17.621V5.717C16.7697 5.57922 15.9094 5.50402 15.047 5.492C12.42 5.492 10.703 7.084 10.703 9.9665V12.5H7.78302V15.824H10.703V23.86C11.8937 24.0467 13.1063 24.0467 14.297 23.86V15.824H16.9765Z" fill="#3B5998"/>
</svg>
