<svg width="24" height="25" viewBox="0 0 24 25" fill="none" xmlns="http://www.w3.org/2000/svg">
<rect y="0.5" width="24" height="24" rx="4" fill="white"/>
<path d="M13.31 4C14.726 4 15.962 4.27 17.018 4.81C18.074 5.338 18.884 6.088 19.448 7.06C20.024 8.02 20.312 9.13 20.312 10.39C20.312 11.41 20.132 12.358 19.772 13.234C19.424 14.11 18.902 14.812 18.206 15.34C17.522 15.856 16.706 16.114 15.758 16.114C15.122 16.114 14.594 15.988 14.174 15.736C13.766 15.484 13.49 15.13 13.346 14.674C13.01 15.142 12.578 15.508 12.05 15.772C11.522 16.024 10.946 16.15 10.322 16.15C9.43397 16.15 8.73197 15.886 8.21597 15.358C7.71197 14.818 7.45997 14.086 7.45997 13.162C7.45997 12.286 7.63997 11.464 7.99997 10.696C8.35997 9.916 8.85797 9.292 9.49397 8.824C10.13 8.356 10.844 8.122 11.636 8.122C12.644 8.122 13.328 8.482 13.688 9.202L13.85 8.248H16.334L15.542 12.766C15.506 12.982 15.488 13.174 15.488 13.342C15.488 13.87 15.722 14.134 16.19 14.134C16.766 14.134 17.204 13.768 17.504 13.036C17.816 12.292 17.972 11.44 17.972 10.48C17.972 9.1 17.534 8.02 16.658 7.24C15.794 6.46 14.576 6.07 13.004 6.07C11.66 6.07 10.436 6.394 9.33197 7.042C8.23997 7.69 7.38197 8.578 6.75797 9.706C6.13397 10.822 5.82197 12.052 5.82197 13.396C5.82197 14.848 6.24197 15.976 7.08197 16.78C7.93397 17.584 9.12197 17.986 10.646 17.986C11.834 17.986 12.896 17.77 13.832 17.338L14.318 19.3C13.142 19.816 11.822 20.074 10.358 20.074C8.98997 20.074 7.78397 19.81 6.73997 19.282C5.70797 18.754 4.90997 18.004 4.34597 17.032C3.78197 16.06 3.49997 14.926 3.49997 13.63C3.49997 11.818 3.92597 10.18 4.77797 8.716C5.62997 7.24 6.79997 6.088 8.28797 5.26C9.78797 4.42 11.462 4 13.31 4ZM11.33 13.936C11.666 13.936 11.978 13.834 12.266 13.63C12.566 13.426 12.8 13.156 12.968 12.82C13.148 12.472 13.238 12.1 13.238 11.704C13.238 11.296 13.124 10.966 12.896 10.714C12.668 10.45 12.356 10.318 11.96 10.318C11.432 10.318 10.994 10.546 10.646 11.002C10.298 11.458 10.124 11.998 10.124 12.622C10.124 13.018 10.226 13.336 10.43 13.576C10.634 13.816 10.934 13.936 11.33 13.936Z" fill="#011EF4"/>
</svg>
