<svg width="32" height="32" viewBox="0 0 32 32" fill="none" xmlns="http://www.w3.org/2000/svg">
<path d="M27 3.5H28.25C28.9405 3.5 29.5 4.0595 29.5 4.75V13.8945C29.5 14.2895 29.617 14.6755 29.836 15.004L30.5 16L29.836 16.996C29.617 17.3245 29.5 17.7105 29.5 18.1055V27.25C29.5 27.9405 28.9405 28.5 28.25 28.5H27.0475" stroke="#E6E6E6" stroke-width="2" stroke-linecap="round" stroke-linejoin="round"/>
<path d="M5 3.5H3.75C3.0595 3.5 2.5 4.0595 2.5 4.75V13.8945C2.5 14.2895 2.383 14.6755 2.164 15.004L1.5 16L2.164 16.996C2.383 17.3245 2.5 17.7105 2.5 18.1055V27.25C2.5 27.9405 3.0595 28.5 3.75 28.5H4.9525" stroke="#E6E6E6" stroke-width="2" stroke-linecap="round" stroke-linejoin="round"/>
<path d="M9.5 3.5H10.5V9.5" stroke="#E6E6E6" stroke-width="2" stroke-linecap="round" stroke-linejoin="round"/>
<path d="M21 3.5H22V9.5" stroke="#E6E6E6" stroke-width="2" stroke-linecap="round" stroke-linejoin="round"/>
<path d="M16.75 3.5H15.25C14.5596 3.5 14 4.05964 14 4.75V8.25C14 8.94036 14.5596 9.5 15.25 9.5H16.75C17.4404 9.5 18 8.94036 18 8.25V4.75C18 4.05964 17.4404 3.5 16.75 3.5Z" stroke="#E6E6E6" stroke-width="2" stroke-linecap="round" stroke-linejoin="round"/>
<path d="M9.5 22.5H10.5V28.5" stroke="#E6E6E6" stroke-width="2" stroke-linecap="round" stroke-linejoin="round"/>
<path d="M21 22.5H22V28.5" stroke="#E6E6E6" stroke-width="2" stroke-linecap="round" stroke-linejoin="round"/>
<path d="M16.75 22.5H15.25C14.5596 22.5 14 23.0596 14 23.75V27.25C14 27.9404 14.5596 28.5 15.25 28.5H16.75C17.4404 28.5 18 27.9404 18 27.25V23.75C18 23.0596 17.4404 22.5 16.75 22.5Z" stroke="#E6E6E6" stroke-width="2" stroke-linecap="round" stroke-linejoin="round"/>
<path d="M15.5 13H16.5V19" stroke="#E6E6E6" stroke-width="2" stroke-linecap="round" stroke-linejoin="round"/>
<path d="M11.25 13H9.75C9.05964 13 8.5 13.5596 8.5 14.25V17.75C8.5 18.4404 9.05964 19 9.75 19H11.25C11.9404 19 12.5 18.4404 12.5 17.75V14.25C12.5 13.5596 11.9404 13 11.25 13Z" stroke="#E6E6E6" stroke-width="2" stroke-linecap="round" stroke-linejoin="round"/>
<path d="M22.75 13H21.25C20.5596 13 20 13.5596 20 14.25V17.75C20 18.4404 20.5596 19 21.25 19H22.75C23.4404 19 24 18.4404 24 17.75V14.25C24 13.5596 23.4404 13 22.75 13Z" stroke="#E6E6E6" stroke-width="2" stroke-linecap="round" stroke-linejoin="round"/>
</svg>
