<svg width="112" height="137" viewBox="0 0 112 137" fill="none" xmlns="http://www.w3.org/2000/svg">
<g clip-path="url(#clip0_209_645)">
<path d="M105.08 0H6.91967C3.09804 0 0 3.09544 0 6.91385V130.086C0 133.905 3.09804 137 6.91967 137H105.08C108.902 137 112 133.905 112 130.086V6.91385C112 3.09544 108.902 0 105.08 0Z" fill="#011EF4"/>
<path d="M19.6838 84.4365C19.6838 84.0333 19.8916 83.8306 20.3096 83.8306H21.3292C21.7593 83.8306 21.9743 84.0333 21.9743 84.4365V115.479C21.9743 115.884 21.7665 116.087 21.3485 116.087H20.3289C19.8989 116.087 19.6838 115.884 19.6838 115.479V84.4365Z" fill="white"/>
<path d="M50.7498 112.172L50.6918 110.685C50.1748 111.578 49.5392 112.397 48.8025 113.12C48.0696 113.84 47.246 114.462 46.3525 114.969C45.4498 115.482 44.4853 115.877 43.4822 116.145C42.4474 116.421 41.3808 116.559 40.3099 116.556C39.1592 116.564 38.0128 116.414 36.9032 116.109C35.8276 115.809 34.7965 115.367 33.8372 114.796C32.8861 114.23 32.0081 113.55 31.223 112.77C30.4371 111.994 29.7557 111.12 29.1959 110.168C28.6308 109.207 28.1931 108.178 27.8937 107.104C27.5841 105.999 27.4288 104.856 27.4322 103.708C27.429 102.561 27.5843 101.419 27.8937 100.314C28.1934 99.2391 28.6346 98.209 29.2056 97.2503C29.7707 96.3015 30.4516 95.4266 31.2327 94.6455C32.0135 93.8652 32.8884 93.1848 33.8372 92.6201C34.7971 92.0505 35.828 91.6097 36.9032 91.3093C38.0099 91.0012 39.1538 90.8468 40.3027 90.8507C41.3631 90.8488 42.4192 90.9868 43.4436 91.261C44.4574 91.5275 45.4321 91.9252 46.3429 92.4439C47.2449 92.9606 48.0778 93.5892 48.8218 94.3148C49.5721 95.0404 50.2221 95.8628 50.7546 96.7603V91.9466C50.7546 91.529 50.9576 91.319 51.3635 91.319H52.3662C52.8107 91.319 53.033 91.529 53.033 91.9466V115.472C53.0413 115.564 53.0259 115.656 52.9882 115.741C52.9506 115.825 52.892 115.899 52.818 115.954C52.6668 116.054 52.4891 116.105 52.3082 116.102H51.506C50.9963 116.102 50.7401 115.86 50.7401 115.397L50.7498 112.172ZM50.8682 103.705C50.8731 102.308 50.579 100.925 50.0057 99.6499C49.4478 98.3924 48.6651 97.2471 47.6959 96.2702C46.725 95.2967 45.5823 94.511 44.3254 93.9527C43.0565 93.3821 41.6821 93.0828 40.2906 93.074H40.2326C38.8572 93.0693 37.4972 93.3626 36.2461 93.9334C35.0049 94.4943 33.8786 95.28 32.9239 96.2509C31.9669 97.2296 31.1972 98.375 30.6528 99.6306C30.0908 100.905 29.8036 102.284 29.8096 103.677C29.8048 105.076 30.0817 106.463 30.6238 107.754C31.1468 109.022 31.9004 110.183 32.8466 111.177C33.7881 112.161 34.9081 112.957 36.147 113.523C37.4156 114.104 38.796 114.401 40.1915 114.393C41.6105 114.399 43.0152 114.11 44.3158 113.543C45.5851 112.996 46.7388 112.213 47.7152 111.235C48.6846 110.26 49.4645 109.114 50.0153 107.855C50.5897 106.548 50.8803 105.133 50.8682 103.705Z" fill="white"/>
<path d="M75.0605 93.4794C75.3359 92.8662 75.617 92.2466 75.9037 91.6205C75.9581 91.5474 76.0268 91.486 76.1058 91.4404C76.1847 91.3947 76.2722 91.3656 76.3628 91.355C76.5738 91.3226 76.7871 91.3064 77.0006 91.3067C77.298 91.2917 77.5958 91.3252 77.8825 91.4057C77.9682 91.4424 78.0394 91.5062 78.0853 91.5873C78.1311 91.6685 78.149 91.7624 78.1362 91.8547C78.1343 91.9208 78.1246 91.9864 78.1072 92.0502C78.0956 92.1038 78.0794 92.1563 78.0588 92.2071V92.1878C77.6529 93.1663 77.2503 94.1384 76.8508 95.104C76.4513 96.0696 76.0487 97.0417 75.6428 98.0202C76.6092 100.381 77.5917 102.789 78.5904 105.243C79.589 107.697 80.5788 110.105 81.5598 112.466L82.7823 109.489C83.2349 108.393 83.7052 107.242 84.1933 106.035C84.6813 104.828 85.1807 103.592 85.6913 102.327C86.2019 101.062 86.7084 99.8122 87.211 98.5778C87.7135 97.3434 88.1967 96.1533 88.6606 95.0074L89.9436 91.8354C90.0086 91.726 90.108 91.6411 90.2263 91.594C90.3739 91.5251 90.5287 91.4725 90.6877 91.4371C90.8619 91.3977 91.0388 91.371 91.2168 91.3574C91.4005 91.3453 91.5696 91.3381 91.7266 91.3381C91.8099 91.3311 91.8936 91.3415 91.9726 91.3685C92.0516 91.3955 92.1242 91.4386 92.1857 91.495C92.2335 91.5442 92.2712 91.6024 92.2965 91.6662C92.3218 91.73 92.3342 91.7981 92.3331 91.8668C92.3312 91.9329 92.3215 91.9985 92.3041 92.0623C92.2964 92.1107 92.28 92.1573 92.2558 92.1999L82.5576 115.747C82.4978 115.858 82.4062 115.95 82.2942 116.01C82.1456 116.088 81.9789 116.126 81.811 116.118H81.1659C80.9998 116.124 80.8368 116.072 80.7045 115.971C80.6487 115.933 80.6029 115.881 80.5705 115.822C80.5382 115.762 80.5204 115.696 80.5184 115.628L77.4814 108.319C76.4763 105.904 75.4648 103.467 74.4468 101.006C74.0022 102.089 73.5448 103.202 73.0745 104.345C72.6041 105.488 72.1306 106.636 71.6538 107.79C71.1706 108.944 70.697 110.095 70.2332 111.244C69.7693 112.393 69.3126 113.509 68.8632 114.59L68.38 115.747C68.305 115.874 68.1949 115.976 68.0629 116.042C67.9309 116.108 67.7826 116.135 67.6359 116.118H66.9908C66.8252 116.119 66.6637 116.068 66.5293 115.971C66.4693 115.935 66.4191 115.885 66.3832 115.826C66.3474 115.766 66.327 115.698 66.3239 115.628L56.5871 92.212C56.5533 92.1044 56.5402 91.9913 56.5485 91.8788C56.5339 91.7727 56.5617 91.6651 56.6259 91.5793C56.6901 91.4934 56.7855 91.4363 56.8915 91.4202C57.1793 91.3688 57.4714 91.3453 57.7637 91.3501C57.998 91.3487 58.2317 91.3755 58.4596 91.4298C58.5564 91.4474 58.6474 91.4888 58.7241 91.5504C58.8009 91.6119 58.8611 91.6916 58.8993 91.7823C59.2907 92.7479 59.7216 93.8012 60.1919 94.9423C60.6622 96.0833 61.1455 97.271 61.6416 98.5054C62.1441 99.7366 62.6539 100.992 63.1709 102.271C63.688 103.551 64.197 104.797 64.6979 106.011C65.2005 107.224 65.6772 108.382 66.1282 109.485C66.5792 110.587 66.994 111.589 67.3725 112.49C68.2085 110.467 69.2007 108.02 70.3491 105.149C71.4976 102.278 72.8103 99.0156 74.2873 95.3623H74.268C74.5193 94.7129 74.7851 94.0925 75.0605 93.4794Z" fill="white"/>
<path d="M90.0571 116.085C91.3048 116.085 92.3162 115.074 92.3162 113.827C92.3162 112.581 91.3048 111.57 90.0571 111.57C88.8095 111.57 87.7981 112.581 87.7981 113.827C87.7981 115.074 88.8095 116.085 90.0571 116.085Z" fill="#FBBB02"/>
<path d="M31.9793 79.6348H20.8653C20.7117 79.6348 20.5597 79.6046 20.4178 79.5459C20.2759 79.4871 20.147 79.4011 20.0384 79.2926C19.9298 79.1841 19.8437 79.0553 19.7849 78.9135C19.7262 78.7718 19.6959 78.6198 19.6959 78.4664V21.613C19.6959 21.4596 19.7262 21.3076 19.7849 21.1658C19.8437 21.0241 19.9298 20.8953 20.0384 20.7868C20.147 20.6783 20.2759 20.5922 20.4178 20.5335C20.5597 20.4748 20.7117 20.4446 20.8653 20.4446H31.9793C32.2894 20.4446 32.5869 20.5677 32.8062 20.7868C33.0255 21.0059 33.1487 21.3031 33.1487 21.613V26.907C33.1487 27.2169 33.0255 27.5141 32.8062 27.7332C32.5869 27.9523 32.2894 28.0754 31.9793 28.0754C31.6691 28.0754 31.3717 27.9523 31.1524 27.7332C30.9331 27.5141 30.8099 27.2169 30.8099 26.907V22.7838H22.0226V77.2956H30.8099V34.7551H27.2897C26.9793 34.7551 26.6816 34.6321 26.4619 34.413C26.2422 34.194 26.1185 33.8968 26.1179 33.5867C26.1179 33.2762 26.2413 32.9784 26.4611 32.7588C26.6808 32.5393 26.9789 32.4159 27.2897 32.4159H31.9793C32.2896 32.4165 32.5871 32.5401 32.8063 32.7596C33.0255 32.9791 33.1487 33.2766 33.1487 33.5867V78.4736C33.1468 78.7822 33.0227 79.0776 32.8036 79.2951C32.5845 79.5127 32.2882 79.6348 31.9793 79.6348Z" fill="white"/>
<path d="M91.1492 79.6347H79.552C79.3154 79.6344 79.0844 79.5625 78.8895 79.4285C78.6946 79.2945 78.5448 79.1046 78.4599 78.884L75.2683 70.5313H56.2005C55.9396 71.4004 55.5119 72.8271 55.0771 74.2538C54.6736 75.5815 54.3522 76.6389 54.1106 77.3921C53.9705 77.829 53.8497 78.1935 53.7627 78.4494C53.6081 78.8912 53.352 79.6275 52.4967 79.6275H40.6409C40.4558 79.6277 40.2731 79.5841 40.1081 79.5001C39.943 79.4162 39.8003 79.2944 39.6914 79.1447C39.5828 78.9942 39.5116 78.82 39.4838 78.6365C39.4561 78.453 39.4726 78.2656 39.532 78.0897L54.2218 34.236C54.2993 34.0034 54.4482 33.8011 54.6472 33.6577C54.8462 33.5143 55.0854 33.4371 55.3307 33.437H65.8963C66.1427 33.4369 66.3828 33.5146 66.5824 33.6589C66.782 33.8033 66.9308 34.007 67.0077 34.2409L74.9469 58.3476C75.005 58.5231 75.0204 58.7099 74.9918 58.8925C74.9632 59.0751 74.8915 59.2483 74.7826 59.3977C74.6742 59.5472 74.5318 59.669 74.3672 59.7529C74.2025 59.8368 74.0203 59.8805 73.8355 59.8805H58.3122C58.1273 59.8807 57.9451 59.8371 57.7804 59.7532C57.6157 59.6692 57.4734 59.5474 57.3651 59.3977C57.2565 59.2486 57.1848 59.0759 57.1559 58.8939C57.1269 58.7118 57.1415 58.5254 57.1984 58.35L61.0641 47.5592C61.1115 47.4132 61.1872 47.2779 61.2869 47.1612C61.3867 47.0444 61.5085 46.9484 61.6453 46.8787C61.7822 46.809 61.9315 46.7669 62.0846 46.7548C62.2378 46.7427 62.3918 46.761 62.5379 46.8084C62.6841 46.8558 62.8194 46.9314 62.9363 47.0311C63.0532 47.1307 63.1492 47.2524 63.219 47.3891C63.2888 47.5259 63.3309 47.675 63.343 47.8281C63.355 47.9811 63.3368 48.135 63.2893 48.281L59.9213 57.5413H72.2143L65.0458 35.7738H56.1691L42.2621 77.2955H51.6849C52.1681 75.8302 53.2505 72.2598 54.2097 69.0298C54.2819 68.7887 54.4299 68.5772 54.6318 68.4267C54.8338 68.2763 55.0788 68.1949 55.3307 68.1945H76.0777C76.3146 68.1947 76.5459 68.2665 76.7413 68.4005C76.9366 68.5345 77.0868 68.7244 77.1721 68.9453L80.3638 77.2955H89.5207L70.9701 22.7838H60.5519L58.491 28.7948C58.4489 28.9429 58.3781 29.0813 58.2824 29.202C58.1868 29.3228 58.0682 29.4235 57.9336 29.4984C57.7989 29.5733 57.6508 29.6209 57.4977 29.6385C57.3446 29.6561 57.1895 29.6434 57.0413 29.6011C56.8927 29.5596 56.7537 29.4891 56.6324 29.3937C56.5111 29.2984 56.41 29.1799 56.3347 29.0452C56.2595 28.9106 56.2117 28.7624 56.194 28.6092C56.1764 28.456 56.1893 28.3008 56.2319 28.1526L58.5369 21.2919C58.6059 21.0466 58.7533 20.8306 58.9565 20.6768C59.1598 20.5229 59.4078 20.4397 59.6628 20.4397H71.8036C72.0484 20.4395 72.2871 20.516 72.486 20.6585C72.685 20.801 72.8342 21.0022 72.9126 21.2339L92.2413 78.0849C92.301 78.261 92.3179 78.4487 92.2906 78.6325C92.2632 78.8164 92.1925 78.9911 92.0842 79.1423C91.9781 79.2921 91.8382 79.4148 91.6757 79.5003C91.5132 79.5859 91.3328 79.632 91.1492 79.6347Z" fill="white"/>
<path d="M27.1109 35.8583C28.3585 35.8583 29.3699 34.8477 29.3699 33.6011C29.3699 32.3546 28.3585 31.344 27.1109 31.344C25.8633 31.344 24.8519 32.3546 24.8519 33.6011C24.8519 34.8477 25.8633 35.8583 27.1109 35.8583Z" fill="white"/>
<path d="M57.5245 30.0646C58.7722 30.0646 59.7836 29.054 59.7836 27.8074C59.7836 26.5609 58.7722 25.5503 57.5245 25.5503C56.2769 25.5503 55.2655 26.5609 55.2655 27.8074C55.2655 29.054 56.2769 30.0646 57.5245 30.0646Z" fill="white"/>
<path d="M62.7965 48.5924C64.0441 48.5924 65.0555 47.5819 65.0555 46.3353C65.0555 45.0887 64.0441 44.0781 62.7965 44.0781C61.5488 44.0781 60.5374 45.0887 60.5374 46.3353C60.5374 47.5819 61.5488 48.5924 62.7965 48.5924Z" fill="white"/>
</g>
<defs>
<clipPath id="clip0_209_645">
<rect width="112" height="137" fill="white"/>
</clipPath>
</defs>
</svg>
