<svg width="24" height="24" viewBox="0 0 24 24" fill="none" xmlns="http://www.w3.org/2000/svg">
<g clip-path="url(#clip0_209_641)">
<path d="M12 23.5C18.3513 23.5 23.5 18.3513 23.5 12C23.5 5.64873 18.3513 0.5 12 0.5C5.64873 0.5 0.5 5.64873 0.5 12C0.5 18.3513 5.64873 23.5 12 23.5Z" fill="#011EF4"/>
<path d="M16.4765 15.3239L16.9865 11.9999H13.797V9.84294C13.797 8.93344 14.2425 8.04694 15.671 8.04694H17.121V5.21694C16.2696 5.07917 15.4093 5.00397 14.547 4.99194C11.92 4.99194 10.203 6.58394 10.203 9.46644V11.9999H7.28299V15.3239H10.203V23.3599C11.3937 23.5466 12.6063 23.5466 13.797 23.3599V15.3239H16.4765Z" fill="white"/>
</g>
<defs>
<clipPath id="clip0_209_641">
<rect width="24" height="24" fill="white"/>
</clipPath>
</defs>
</svg>
