<svg width="24" height="25" viewBox="0 0 24 25" fill="none" xmlns="http://www.w3.org/2000/svg">
<path d="M16.328 14.6858C14.954 14.0058 13.5561 13.6767 12.4869 13.5146C8.99153 16.4153 5.09276 17.582 0.793945 16.678C1.23413 17.8336 1.84259 18.9042 2.5979 19.857C10.5073 20.1239 14.172 18.123 16.328 14.6858Z" fill="white"/>
<path d="M11.6528 6.83435C11.9246 8.31302 12.4812 9.61454 12.9857 10.5661C15.2591 10.9163 17.3109 11.6778 19.0111 12.789L19.0172 12.7907C20.0134 13.2833 21.7414 14.8817 23.0394 17.1208C23.4885 16.069 23.788 14.9392 23.9199 13.7586C19.1187 7.63334 15.5052 6.31992 11.6528 6.83435Z" fill="white"/>
<path d="M9.29996 0.72998C7.95661 1.03934 6.70188 1.57327 5.57285 2.29169C4.6229 4.99084 4.51798 9.82657 6.91208 13.3831C8.19721 12.8989 9.29099 12.2092 10.1292 11.5669C8.13843 7.57961 8.09263 4.04266 9.29996 0.72998Z" fill="white"/>
<path d="M11.5928 3.8237C15.9326 3.34094 19.5917 4.79947 23.3619 8.57629C21.8299 4.04022 17.6658 0.729767 12.6833 0.448242C12.053 1.68065 11.7526 2.72111 11.5928 3.8237Z" fill="white"/>
<path d="M18.7907 16.4531C16.7699 19.7365 13.4801 22.4894 6.10986 22.8619C7.85083 23.8456 9.85767 24.4136 12 24.4136C15.6892 24.4136 18.9862 22.7456 21.1875 20.1263C20.6321 18.755 19.8762 17.5424 18.7907 16.4531Z" fill="white"/>
<path d="M3.73462 13.998C3.74661 13.998 3.75787 13.9955 3.76987 13.9954C2.41534 11.4763 1.87408 8.56351 1.95145 5.86572C0.721344 7.74951 0 9.99603 0 12.4138C0 12.7377 0.0232544 13.0558 0.0484314 13.3733C1.25674 13.7823 2.49509 13.998 3.73462 13.998Z" fill="white"/>
</svg>
